<svg xmlns="http://www.w3.org/2000/svg" xmlns:xlink="http://www.w3.org/1999/xlink" width="300" height="300" viewBox="0 0 300 300">
  <defs>
    <style>
      .cls-1 {
        fill: #fafafa;
      }

      .cls-2 {
        clip-path: url(#clip-CSS);
      }

      .cls-3 {
        fill: #0a6cb2;
      }

      .cls-4 {
        fill: #2982bf;
      }

      .cls-5 {
        fill: #fff;
      }

      .cls-6 {
        clip-path: url(#clip-path);
      }

      .cls-7 {
        fill: #ebebeb;
      }

      .cls-8 {
        fill: rgba(255,255,255,0);
      }
    </style>
    <clipPath id="clip-path">
      <rect id="Mask" class="cls-1" width="82.5" height="185" transform="translate(258.627 159.481)"/>
    </clipPath>
    <clipPath id="clip-CSS">
      <rect width="300" height="300"/>
    </clipPath>
  </defs>
  <g id="CSS" class="cls-2">
    <rect class="cls-8" width="300" height="300"/>
    <g id="CSS-2" data-name="CSS" transform="translate(-191.127 -101.981)">
      <path id="CSS-3" data-name="CSS" class="cls-3" d="M232.777,371.981l-24.15-270h265l-24,270-108.5,30Z"/>
      <path id="CSS-4" data-name="CSS" class="cls-4" d="M1000,234.1v255l89-24.25,21-230.75Z" transform="translate(-658.873 -109.622)"/>
      <path id="CSS-5" data-name="CSS" class="cls-5" d="M106.5,13h-165l2.89,32.67H64.8L62.3,79.12H-52.56l2.87,32.67H60.64l-2.5,38.959L24,162.437l-37.1-8.26-2.44-27.21H-47.79l4.15,52.44L24,198l67.385-18.59Z" transform="translate(317.127 146.484)"/>
      <g id="CSS-6" data-name="CSS" class="cls-6">
        <path id="CSS-7" data-name="CSS" class="cls-7" d="M106.5,13h-165l2.89,32.67H64.8L62.3,79.12H-52.56l2.87,32.67H60.64l-2.5,38.959L24,162.437l-37.1-8.26-2.44-27.21H-47.79l4.15,52.44L24,198l67.385-18.59Z" transform="translate(317.127 146.484)"/>
      </g>
    </g>
  </g>
</svg>
