<svg width="45" height="50" viewBox="0 0 45 50" fill="none" xmlns="http://www.w3.org/2000/svg">
<path d="M4.025 45L0 0H44.1667L40.1667 45L22.0833 50L4.025 45Z" fill="#0A6CB2"/>
<path d="M22.0833 3.7495V46.2495L36.9167 42.2078L40.4167 3.7495H22.0833Z" fill="#2982BF"/>
<path d="M35.8333 9.58383H8.33334L8.815 15.0288H28.8833L28.4667 20.6038H9.32334L9.80167 26.0488H28.19L27.7733 32.542L22.0833 34.49L15.9 33.1133L15.4933 28.5783H10.1183L10.81 37.3183L22.0833 40.4172L33.3142 37.3188L35.8333 9.58383Z" fill="white"/>
<path d="M35.8333 9.58383H8.33334L8.815 15.0288H28.8833L28.4667 20.6038H9.32334L9.80167 26.0488H28.19L27.7733 32.542L22.0833 34.49L15.9 33.1133L15.4933 28.5783H10.1183L10.81 37.3183L22.0833 40.4172L33.3142 37.3188L35.8333 9.58383Z" fill="#EBEBEB"/>
</svg>
