<svg width="45" height="50" viewBox="0 0 45 50" fill="none" xmlns="http://www.w3.org/2000/svg">
<path d="M4.10094 45L0 0H45L40.9245 45L22.4999 50L4.10094 45Z" fill="#0A6CB2"/>
<path d="M22.5 3.5V46.5L37.8727 42.4108L41.5 3.5H22.5Z" fill="#2982BF"/>
<path d="M36 10H9L9.4729 15.2978H29.1764L28.7673 20.7221H9.972L10.4416 26.02H28.4957L28.0865 32.3377L22.5 34.233L16.4291 32.8935L16.0298 28.4811H10.7525L11.4316 36.9849L22.5 40L33.5267 36.9853L36 10Z" fill="#FAFAFA"/>
<mask id="mask0_9_189" style="mask-type:alpha" maskUnits="userSpaceOnUse" x="3" y="3" width="20" height="44">
<path d="M22.5 3.5V46.5L7.12726 42.4108L3.5 3.5H22.5Z" fill="black"/>
</mask>
<g mask="url(#mask0_9_189)">
<path d="M36 10H9L9.4729 15.2978H29.1764L28.7673 20.7221H9.972L10.4416 26.02H28.4957L28.0865 32.3377L22.5 34.233L16.4291 32.8935L16.0298 28.4811H10.7525L11.4316 36.9849L22.5 40L33.5267 36.9853L36 10Z" fill="#EBEBEB"/>
</g>
</svg>
