<svg xmlns="http://www.w3.org/2000/svg" width="200" height="300" viewBox="0 0 200 300">
  <defs>
    <style>
      .cls-1 {
        fill: #29b6f6;
      }

      .cls-2 {
        fill: #66bb6a;
      }

      .cls-3 {
        fill: #7c4dff;
      }

      .cls-4 {
        fill: #e64a19;
      }

      .cls-5 {
        fill: #ff7043;
      }
    </style>
  </defs>
  <g id="Figma" transform="translate(-11 -3)">
    <circle id="Figma-2" data-name="Figma" class="cls-1" cx="50" cy="50" r="50" transform="translate(111 103)"/>
    <path id="Figma-3" data-name="Figma" class="cls-2" d="M61,131h0A50,50,0,0,1,11,81h0A50,50,0,0,1,61,31h50V81A50,50,0,0,1,61,131Z" transform="translate(0 172)"/>
    <path id="Figma-4" data-name="Figma" class="cls-3" d="M111,117H61A50,50,0,0,1,11,67h0A50,50,0,0,1,61,17h50Z" transform="translate(0 86)"/>
    <path id="Figma-5" data-name="Figma" class="cls-4" d="M118.5,103H61.167A50.083,50.083,0,0,1,11,53h0A50.083,50.083,0,0,1,61.167,3H118.5Z"/>
    <path id="Figma-6" data-name="Figma" class="cls-5" d="M75,103H25V3H75a50,50,0,0,1,50,50h0A50,50,0,0,1,75,103Z" transform="translate(86)"/>
  </g>
</svg>
