<svg width="34" height="50" viewBox="0 0 34 50" fill="none" xmlns="http://www.w3.org/2000/svg">
<path d="M25 33.3332C29.6024 33.3332 33.3333 29.6022 33.3333 24.9998C33.3333 20.3975 29.6024 16.6665 25 16.6665C20.3976 16.6665 16.6667 20.3975 16.6667 24.9998C16.6667 29.6022 20.3976 33.3332 25 33.3332Z" fill="#29B6F6"/>
<path d="M8.33333 49.9999C6.1232 49.9999 4.00358 49.1219 2.44078 47.5591C0.877974 45.9963 0 43.8767 0 41.6666V41.6666C0 39.4564 0.877974 37.3368 2.44078 35.774C4.00358 34.2112 6.1232 33.3333 8.33333 33.3333H16.6667V41.6666C16.6667 42.7609 16.4511 43.8446 16.0323 44.8556C15.6135 45.8667 14.9997 46.7853 14.2259 47.5591C13.4521 48.333 12.5334 48.9468 11.5224 49.3656C10.5113 49.7844 9.42768 49.9999 8.33333 49.9999V49.9999Z" fill="#66BB6A"/>
<path d="M16.6667 33.3332H8.33333C6.1232 33.3332 4.00358 32.4552 2.44078 30.8924C0.877974 29.3296 0 27.21 0 24.9998V24.9998C0 22.7897 0.877974 20.6701 2.44078 19.1073C4.00358 17.5445 6.1232 16.6665 8.33333 16.6665H16.6667V33.3332Z" fill="#7C4DFF"/>
<path d="M17.9167 16.6666H8.36116C7.26498 16.6684 6.17918 16.4543 5.16574 16.0365C4.1523 15.6187 3.23107 15.0054 2.45467 14.2316C1.67826 13.4577 1.06187 12.5386 0.640697 11.5265C0.219524 10.5145 0.0018151 9.4294 0 8.33322V8.33322C0.0018151 7.23704 0.219524 6.15195 0.640697 5.13991C1.06187 4.12787 1.67826 3.2087 2.45467 2.43487C3.23107 1.66105 4.1523 1.04773 5.16574 0.629935C6.17918 0.212139 7.26498 -0.00195035 8.36116 -0.00011031H17.9167V16.6666Z" fill="#E64A19"/>
<path d="M25 16.6665H16.6667V-0.00012207H25C27.2101 -0.00012207 29.3297 0.877852 30.8925 2.44065C32.4553 4.00346 33.3333 6.12307 33.3333 8.33321C33.3333 10.5433 32.4553 12.663 30.8925 14.2258C29.3297 15.7886 27.2101 16.6665 25 16.6665Z" fill="#FF7043"/>
</svg>
