<svg width="34" height="51" viewBox="0 0 34 51" fill="none" xmlns="http://www.w3.org/2000/svg">
<path d="M25.25 34C29.8064 34 33.5 30.3063 33.5 25.75C33.5 21.1937 29.8064 17.5 25.25 17.5C20.6936 17.5 17 21.1937 17 25.75C17 30.3063 20.6936 34 25.25 34Z" fill="#29B6F6"/>
<path d="M8.74998 50.5C6.56196 50.5 4.46354 49.6308 2.91637 48.0836C1.36919 46.5364 0.5 44.438 0.5 42.25C0.5 40.0619 1.36919 37.9635 2.91637 36.4163C4.46354 34.8691 6.56196 34 8.74998 34H17V42.25C17 43.3334 16.7866 44.4062 16.3719 45.4071C15.9573 46.4081 15.3497 47.3175 14.5836 48.0836C13.8176 48.8498 12.908 49.4574 11.9072 49.872C10.9062 50.2867 9.83338 50.5 8.74998 50.5Z" fill="#66BB6A"/>
<path d="M17 34H8.74998C6.56196 34 4.46354 33.1308 2.91637 31.5836C1.36919 30.0364 0.5 27.938 0.5 25.75C0.5 23.562 1.36919 21.4636 2.91637 19.9164C4.46354 18.3692 6.56196 17.5 8.74998 17.5H17V34Z" fill="#7C4DFF"/>
<path d="M17 17.5H8.20003C7.19053 17.5018 6.19058 17.2834 5.25728 16.8573C4.32397 16.4311 3.47558 15.8056 2.76058 15.0163C2.04556 14.2269 1.47791 13.2894 1.09004 12.2571C0.702166 11.2249 0.501672 10.1181 0.5 8.99997C0.501672 7.88188 0.702166 6.77509 1.09004 5.74281C1.47791 4.71054 2.04556 3.77299 2.76058 2.98368C3.47558 2.19439 4.32397 1.5688 5.25728 1.14266C6.19058 0.716505 7.19053 0.498135 8.20003 0.500012H17V17.5Z" fill="#E64A19"/>
<path d="M25.25 17.5H17V0.5H25.25C27.438 0.5 29.5364 1.39554 31.0836 2.98959C32.6308 4.58366 33.5 6.74567 33.5 9.00002C33.5 11.2543 32.6308 13.4164 31.0836 15.0105C29.5364 16.6045 27.438 17.5 25.25 17.5Z" fill="#FF7043"/>
</svg>
