<svg width="45" height="50" viewBox="0 0 45 50" fill="none" xmlns="http://www.w3.org/2000/svg">
<path d="M4.10094 45L0 0H45L40.8991 45L22.4999 50L4.10094 45Z" fill="#E34E26"/>
<path d="M22.5 3.5V46.5L37.8727 42.4108L41.5 3.5H22.5Z" fill="#EF662A"/>
<path d="M9 10.0002L10.4529 26.0199H29.1355L28.5086 32.8908L22.4931 34.4865L16.4892 32.8933L16.0877 28.4813H10.6771L11.4508 36.986L22.4916 40L33.5466 36.986L35.0287 20.7229H15.3828L14.8894 15.2979H35.5171L36 10L9 10.0002Z" fill="#FAFAFA"/>
<mask id="mask0_9_188" style="mask-type:alpha" maskUnits="userSpaceOnUse" x="3" y="3" width="20" height="44">
<path d="M22.5 3.5V46.5L7.12726 42.4108L3.5 3.5H22.5Z" fill="black"/>
</mask>
<g mask="url(#mask0_9_188)">
<path d="M9 10.0002L10.4529 26.0199H29.1355L28.5086 32.8908L22.4931 34.4865L16.4892 32.8933L16.0877 28.4813H10.6771L11.4508 36.986L22.4916 40L33.5466 36.986L35.0287 20.7229H15.3828L14.8894 15.2979H35.5171L36 10L9 10.0002Z" fill="#EBEBEB"/>
</g>
</svg>
