<svg width="45" height="50" viewBox="0 0 45 50" fill="none" xmlns="http://www.w3.org/2000/svg">
<path d="M4.025 45L0 0H44.1667L40.1417 45L22.0833 50L4.025 45Z" fill="#E34E26"/>
<path d="M22.0833 3.74949V46.2495L36.9167 42.2078L40.4167 3.74949H22.0833Z" fill="#EF662A"/>
<path d="M8.33334 9.58383L9.81317 26.0487H28.8417L28.2032 33.1105L22.0763 34.7505L15.9612 33.113L15.5523 28.5785H10.0415L10.8295 37.3195L22.0748 40.4172L33.3345 37.3195L34.844 20.6045H14.8343L14.3318 15.0288H35.3415L35.8333 9.58367L8.33334 9.58383Z" fill="white"/>
<path d="M8.33334 9.58383L9.81317 26.0487H28.8417L28.2032 33.1105L22.0763 34.7505L15.9612 33.113L15.5523 28.5785H10.0415L10.8295 37.3195L22.0748 40.4172L33.3345 37.3195L34.844 20.6045H14.8343L14.3318 15.0288H35.3415L35.8333 9.58367L8.33334 9.58383Z" fill="#EBEBEB"/>
</svg>
