<svg width="50" height="50" viewBox="0 0 50 50" fill="none" xmlns="http://www.w3.org/2000/svg">
<path d="M40 0H10C5 0 0 5 0 10V40C0 45 5 50 10 50H40C45 50 50 45 50 40V10C50 5 45 0 40 0Z" fill="#330000"/>
<path d="M35.4699 17.3073C35.1408 17.3151 34.8134 17.2537 34.5069 17.1266C34.2004 16.9996 33.9206 16.8096 33.6839 16.5673C33.2243 16.0389 32.9793 15.3401 33.0015 14.6219C32.9898 14.272 33.0481 13.9233 33.1726 13.599C33.2972 13.2747 33.485 12.9819 33.7241 12.74C34.2074 12.2593 34.847 11.9942 35.51 12.0001C36.2926 12.0001 36.8947 12.2538 37.3362 12.74C37.7805 13.2516 38.0181 13.927 37.9984 14.6219C38.0104 14.9796 37.9544 15.3361 37.8335 15.6703C37.7128 16.0045 37.5297 16.3096 37.2954 16.5673C37.0584 16.8213 36.7729 17.0187 36.4581 17.1463C36.1432 17.2739 35.8063 17.3288 35.4699 17.3073ZM33.2222 35.6607V19.3795C33.2222 19.168 33.3025 19.0834 33.4832 19.0834H37.4565C37.6371 19.0834 37.7174 19.1891 37.7174 19.3795V35.6607C37.7174 35.8923 37.6371 35.9989 37.4565 35.9989H33.5233C33.4812 36.0028 33.4389 35.9965 33.3995 35.9805C33.36 35.9646 33.3245 35.9394 33.2956 35.9069C33.2666 35.8744 33.245 35.8353 33.2322 35.7926C33.2196 35.75 33.2161 35.7048 33.2222 35.6607Z" fill="#FF9A00"/>
<path d="M24.2195 30.8007H16.29L14.67 35.706C14.6525 35.7949 14.6011 35.8743 14.5262 35.9284C14.4512 35.9825 14.3581 36.0073 14.2652 35.9981H10.2583C10.0231 35.9981 9.95975 35.8729 10.0231 35.6224L16.8871 16.2748C16.9511 16.0662 17.0151 15.8367 17.1003 15.5862C17.1861 15.1388 17.2289 14.6846 17.2282 14.2297C17.2211 14.1775 17.2348 14.1248 17.2665 14.082C17.2982 14.0394 17.3455 14.0101 17.3986 14H22.9193C23.0899 14 23.1751 14.0626 23.1964 14.1671L30.9763 35.6636C31.0403 35.893 30.9763 35.9975 30.7631 35.9975H26.3084C26.2328 36.0044 26.1571 35.9851 26.0946 35.9431C26.0322 35.9011 25.9871 35.839 25.9674 35.7679L24.2195 30.8007ZM17.5266 26.5637H22.9407C22.8127 26.1255 22.6421 25.6037 22.4503 25.0611C22.2585 24.4975 22.0668 23.8922 21.875 23.2661C21.6618 22.6191 21.4699 21.9931 21.2567 21.3461C21.0435 20.6992 20.8519 20.0939 20.6813 19.4883C20.5108 18.904 20.3621 18.3613 20.2123 17.8605H20.1698C19.9782 18.7698 19.7363 19.6685 19.445 20.5526C19.1258 21.5545 18.8055 22.598 18.4645 23.6414C18.1661 24.7059 17.8464 25.6868 17.5266 26.5634V26.5637Z" fill="#FF9A00"/>
</svg>
