<svg width="50" height="50" viewBox="0 0 50 50" fill="none" xmlns="http://www.w3.org/2000/svg">
<path d="M41.6667 0H8.33333C3.73096 0 0 3.73096 0 8.33333V41.6667C0 46.269 3.73096 50 8.33333 50H41.6667C46.269 50 50 46.269 50 41.6667V8.33333C50 3.73096 46.269 0 41.6667 0Z" fill="#330000"/>
<path d="M34.5512 17.4693C34.2001 17.4772 33.8509 17.4153 33.5239 17.2874C33.1969 17.1595 32.8984 16.9681 32.6458 16.7241C32.1555 16.192 31.8941 15.4884 31.9178 14.7651C31.9053 14.4128 31.9676 14.0617 32.1004 13.7351C32.2333 13.4085 32.4337 13.1137 32.6887 12.8701C33.2043 12.386 33.8867 12.1191 34.594 12.125C35.429 12.125 36.0713 12.3805 36.5423 12.8701C37.0163 13.3853 37.2698 14.0654 37.2488 14.7651C37.2616 15.1253 37.2018 15.4843 37.0729 15.8209C36.9441 16.1574 36.7488 16.4646 36.4988 16.7241C36.246 16.9799 35.9414 17.1787 35.6055 17.3072C35.2696 17.4357 34.9101 17.491 34.5512 17.4693ZM32.1533 35.951V19.556C32.1533 19.343 32.239 19.2578 32.4317 19.2578H36.6707C36.8633 19.2578 36.949 19.3643 36.949 19.556V35.951C36.949 36.1843 36.8633 36.2916 36.6707 36.2916H32.4745C32.4296 36.2955 32.3845 36.2892 32.3424 36.2731C32.3003 36.2571 32.2624 36.2317 32.2316 36.199C32.2007 36.1662 32.1776 36.1269 32.164 36.0839C32.1505 36.041 32.1468 35.9955 32.1533 35.951Z" fill="#FF9A00"/>
<path d="M23.5232 30.9741H15.6565L14.0493 35.9908C14.0319 36.0818 13.9809 36.163 13.9066 36.2183C13.8322 36.2736 13.7399 36.299 13.6477 36.2896H9.6725C9.43917 36.2896 9.37633 36.1615 9.43916 35.9053L16.2488 16.1181C16.3123 15.9048 16.3758 15.67 16.4603 15.4138C16.5455 14.9563 16.5879 14.4918 16.5872 14.0265C16.5802 13.9731 16.5938 13.9192 16.6252 13.8755C16.6567 13.8319 16.7036 13.8019 16.7563 13.7916H22.2333C22.4025 13.7916 22.487 13.8556 22.5082 13.9625L30.2265 35.9475C30.29 36.1821 30.2265 36.289 30.015 36.289H25.5955C25.5205 36.296 25.4454 36.2763 25.3834 36.2333C25.3215 36.1904 25.2768 36.1269 25.2572 36.0541L23.5232 30.9741ZM16.8833 26.6408H22.2545C22.1275 26.1926 21.9583 25.659 21.768 25.104C21.5777 24.5276 21.3875 23.9086 21.1972 23.2683C20.9857 22.6066 20.7953 21.9663 20.5838 21.3046C20.3723 20.643 20.1822 20.024 20.013 19.4046C19.8438 18.807 19.6963 18.252 19.5477 17.7398H19.5055C19.3155 18.6698 19.0755 19.5889 18.7865 20.4931C18.4698 21.5178 18.152 22.585 17.8137 23.6521C17.5177 24.7408 17.2005 25.744 16.8833 26.6405V26.6408Z" fill="#FF9A00"/>
</svg>
