<svg id="Illustrator" xmlns="http://www.w3.org/2000/svg" width="300" height="300" viewBox="0 0 300 300">
  <defs>
    <style>
      .cls-1 {
        fill: #300;
      }

      .cls-2 {
        fill: #ff9a00;
      }
    </style>
  </defs>
  <rect id="Illustrator-2" data-name="Illustrator" class="cls-1" width="300" height="300" rx="50"/>
  <g id="Illustrator-3" data-name="Illustrator">
    <path id="Illustrator-4" data-name="Illustrator" class="cls-2" d="M207.307,104.816a15.944,15.944,0,0,1-11.432-4.471,16.545,16.545,0,0,1-4.368-11.754,14.992,14.992,0,0,1,4.625-11.37,16.5,16.5,0,0,1,11.432-4.471c5.01,0,8.864,1.533,11.69,4.471a16.081,16.081,0,0,1,4.239,11.37,16.12,16.12,0,0,1-4.5,11.754A15.149,15.149,0,0,1,207.307,104.816ZM192.92,215.706v-98.37c0-1.278.514-1.789,1.67-1.789h25.434c1.156,0,1.67.639,1.67,1.789v98.37c0,1.4-.514,2.044-1.67,2.044H194.847A1.792,1.792,0,0,1,192.92,215.706Z"/>
    <path id="Illustrator-5" data-name="Illustrator" class="cls-2" d="M141.139,185.845h-47.2l-9.643,30.1a2.224,2.224,0,0,1-2.41,1.793H58.035c-1.4,0-1.777-.769-1.4-2.306L97.493,96.709c.381-1.28.762-2.689,1.269-4.226a45.1,45.1,0,0,0,.761-8.324,1.268,1.268,0,0,1,1.015-1.409H133.4c1.015,0,1.522.384,1.649,1.025l46.31,131.91c.381,1.408,0,2.049-1.269,2.049H153.573a1.917,1.917,0,0,1-2.03-1.409Zm-39.839-26h32.227c-.762-2.689-1.777-5.891-2.919-9.221-1.142-3.458-2.283-7.172-3.425-11.014-1.269-3.97-2.411-7.812-3.68-11.782s-2.41-7.684-3.425-11.4c-1.015-3.586-1.9-6.916-2.792-9.989h-.253a158.517,158.517,0,0,1-4.314,16.52c-1.9,6.148-3.807,12.551-5.837,18.954-1.776,6.532-3.679,12.551-5.582,17.93Z"/>
  </g>
</svg>
