<svg xmlns="http://www.w3.org/2000/svg" width="108" height="108" viewBox="0 0 108 108">
  <defs>
    <style>
      .cls-1 {
        fill: #fafafa;
      }
    </style>
  </defs>
  <path id="Linkedin-Logo" class="cls-1" d="M24.175,108.01H1.784V35.9H24.175ZM12.967,26.068a13.029,13.029,0,1,1,12.967-13.09A13.077,13.077,0,0,1,12.967,26.068Zm95.009,81.942H85.633v-35.1c0-8.365-.169-19.093-11.641-19.093-11.641,0-13.425,9.089-13.425,18.491v35.7H38.2V35.9H59.675V45.74h.313C62.978,40.075,70.28,34.1,81.174,34.1,103.834,34.1,108,49.019,108,68.4V108.01Z" transform="translate(0 -0.01)"/>
</svg>
