<svg width="24" height="24" viewBox="0 0 24 24" fill="none" xmlns="http://www.w3.org/2000/svg">
<path d="M5.4 23.9995H-9.06146e-10V7.8H5.4V23.9995ZM24 24H19.2V16.2C19.2 14.3411 18.6 12 16.2 12C13.8 12 13.2 14.1107 13.2 16.2V23.9995H8.4V7.8H13.2V10.2C13.8 9 15 7.8 18 7.8C22.8 7.8 24 10.8 24 15V24Z" fill="#FAFAFA"/>
<path d="M1.21062 4.95205C1.65604 5.24663 2.17881 5.40251 2.71282 5.39997C3.42805 5.39395 4.1119 5.10542 4.61527 4.59727C5.11864 4.08913 5.40071 3.40259 5.39997 2.68733C5.39746 2.15332 5.23666 1.63205 4.93789 1.18943C4.63913 0.746808 4.21582 0.402725 3.72149 0.200691C3.22717 -0.00134379 2.68404 -0.0522558 2.16078 0.0543931C1.63752 0.161042 1.15764 0.420462 0.781822 0.799846C0.406002 1.17923 0.151125 1.66154 0.0494206 2.18578C-0.0522836 2.71002 0.00375357 3.25265 0.210446 3.74504C0.417138 4.23744 0.765202 4.65748 1.21062 4.95205Z" fill="#FAFAFA"/>
</svg>
