<svg xmlns="http://www.w3.org/2000/svg" width="150" height="21" viewBox="0 0 150 21">
  <defs>
    <style>
      .cls-1 {
        fill: #fafafa;
      }

      .cls-2 {
        fill: #e67e22;
      }
    </style>
  </defs>
  <g id="Omni" transform="translate(-4490.25 -799.997)">
    <path id="Omni-2" data-name="Omni" class="cls-1" d="M4.577-5.845a.6.6,0,0,1-.443-.187.657.657,0,0,1-.183-.48V-23.834a.657.657,0,0,1,.183-.48.6.6,0,0,1,.443-.187h5.577a10.029,10.029,0,0,1,4.355.839,5.988,5.988,0,0,1,2.673,2.452,8.27,8.27,0,0,1,.978,3.984c.035.782,0,1.464,0,2.051s.035,1.263,0,2.027a9.12,9.12,0,0,1-.965,4.1A5.491,5.491,0,0,1,14.6-6.631a10.34,10.34,0,0,1-4.316.786ZM7.22-9.579h3.754A5.017,5.017,0,0,0,13.1-9.965a2.561,2.561,0,0,0,1.239-1.253,5.453,5.453,0,0,0,.443-2.252c.017-.515.03-.708.039-1.116s.009-.817,0-1.226-.022-.862-.039-1.359a3.812,3.812,0,0,0-1-2.817,4.049,4.049,0,0,0-2.934-.933H7.22Z" transform="translate(4622.074 825.662)"/>
    <path id="Omni-3" data-name="Omni" class="cls-2" d="M4628.031,805.221s2.9-5.227,8.735-5.187a9.951,9.951,0,0,1,8.811,5.134,10.687,10.687,0,0,1,.441,9.87c-2.841,5.5-7.111,5.9-9.155,5.958,0,0-5.008.56-8.833-5.241-2.795-4.823-4.86-9.5-7.122-11.246-.772-.667-5-3.388-9.491.713a7.738,7.738,0,0,0,0,10.534,7.033,7.033,0,0,0,10.164,0l2.26-2.949,1.539,2.8a13.929,13.929,0,0,1-3.966,4.093,10.04,10.04,0,0,1-10-.144,10.72,10.72,0,0,1-4.909-7.23c-.1-2.212-.376-4.639,1.733-7.814,1.227-1.643,5.62-6.778,13.039-3.334a14.33,14.33,0,0,1,4.123,4.047c1.5,2.429,1.538,2.61,2.7,4.725,1.4,1.977,3.232,8.011,8.59,8.011s7.546-4.553,7.309-8.011c.08-3.408-3.36-6.975-7.136-6.912-3.39,0-5.243,1.907-7.206,5.067" transform="translate(-26.112 -0.013)"/>
    <path id="Omni-4" data-name="Omni" class="cls-1" d="M95.081,27.155a.535.535,0,0,1-.411-.187.686.686,0,0,1-.169-.48V9.166a.686.686,0,0,1,.169-.48.535.535,0,0,1,.411-.187h10.867a.562.562,0,0,1,.436.187.686.686,0,0,1,.169.48V11.49a.65.65,0,0,1-.169.453.562.562,0,0,1-.436.187H98.3v4.89h7.139a.562.562,0,0,1,.436.187.686.686,0,0,1,.169.48v2.006a.65.65,0,0,1-.169.453.562.562,0,0,1-.436.187H98.3v6.158a.686.686,0,0,1-.169.48.562.562,0,0,1-.436.187Z" transform="translate(4468.391 792.662)"/>
    <path id="Omni-5" data-name="Omni" class="cls-1" d="M83.429,27.155a.452.452,0,0,1-.364-.187.742.742,0,0,1-.15-.48V9.166a.742.742,0,0,1,.15-.48.452.452,0,0,1,.364-.187H85.89a.452.452,0,0,1,.364.187.742.742,0,0,1,.15.48V26.489a.742.742,0,0,1-.15.48.452.452,0,0,1-.364.187Z" transform="translate(4470.287 792.662)"/>
    <path id="Omni-6" data-name="Omni" class="cls-1" d="M58.783,27.155a.62.62,0,0,1-.455-.187.648.648,0,0,1-.187-.48V9.166a.648.648,0,0,1,.187-.48.62.62,0,0,1,.455-.187h1.773a.806.806,0,0,1,.588.187,1.323,1.323,0,0,1,.241.293L68.5,20.066V9.166a.64.64,0,0,1,.669-.666h2.063a.64.64,0,0,1,.669.666V26.489a.661.661,0,0,1-.187.466.63.63,0,0,1-.481.2h-1.8a.772.772,0,0,1-.588-.2,2.771,2.771,0,0,1-.241-.28l-7.088-10.74V26.489a.64.64,0,0,1-.669.666Z" transform="translate(4474.979 792.662)"/>
    <path id="Omni-7" data-name="Omni" class="cls-1" d="M28.5,27.155a.559.559,0,0,1-.437-.19.7.7,0,0,1-.17-.488V9.178a.7.7,0,0,1,.17-.488A.56.56,0,0,1,28.5,8.5h2.281a.672.672,0,0,1,.546.217,1.652,1.652,0,0,1,.231.325l4.489,9.164,4.489-9.164a1.653,1.653,0,0,1,.231-.325.672.672,0,0,1,.546-.217H43.57a.56.56,0,0,1,.437.19.7.7,0,0,1,.17.488v17.3a.7.7,0,0,1-.17.488.56.56,0,0,1-.437.19H41.382a.533.533,0,0,1-.413-.19.7.7,0,0,1-.17-.488V16.167l-3.4,6.025a1.246,1.246,0,0,1-.291.434.731.731,0,0,1-.534.19H35.43a.7.7,0,0,1-.51-.19,1.6,1.6,0,0,1-.315-.434l-3.436-6.025V26.478a.7.7,0,0,1-.17.488.559.559,0,0,1-.437.19Z" transform="translate(4482.704 792.662)"/>
    <path id="Omni-8" data-name="Omni" class="cls-1" d="M10.136,26.805a7.114,7.114,0,0,1-3.482-.777,6.082,6.082,0,0,1-2.767-2.345,7.756,7.756,0,0,1-1.075-3.951q-.027-1.114-.027-2.215t.027-2.241A7.72,7.72,0,0,1,3.9,11.35a6.258,6.258,0,0,1,2.794-2.4,6.884,6.884,0,0,1,3.442-.8,6.826,6.826,0,0,1,3.415.8,6.341,6.341,0,0,1,2.808,2.4,7.637,7.637,0,0,1,1.1,3.925q.054,1.14.054,2.241t-.054,2.215a7.671,7.671,0,0,1-1.088,3.951,6.163,6.163,0,0,1-2.781,2.345A7.052,7.052,0,0,1,10.136,26.805Zm0-3.368A3.69,3.69,0,0,0,12.7,22.53,3.912,3.912,0,0,0,13.763,19.6q.054-1.14.054-2.138t-.054-2.112a4.634,4.634,0,0,0-.51-2.2,2.955,2.955,0,0,0-1.276-1.244,4.132,4.132,0,0,0-1.84-.389,4.154,4.154,0,0,0-1.827.389,2.937,2.937,0,0,0-1.29,1.244,4.844,4.844,0,0,0-.537,2.2q-.027,1.114-.027,2.112T6.482,19.6A4.023,4.023,0,0,0,7.557,22.53,3.679,3.679,0,0,0,10.136,23.437Z" transform="translate(4487.465 793.012)"/>
  </g>
</svg>
