<svg id="Photoshop" xmlns="http://www.w3.org/2000/svg" width="300" height="300" viewBox="0 0 300 300">
  <defs>
    <style>
      .cls-1 {
        fill: #001e36;
      }

      .cls-2 {
        fill: #31a8ff;
      }
    </style>
  </defs>
  <rect id="Photoshop-2" data-name="Photoshop" class="cls-1" width="300" height="300" rx="50"/>
  <g id="Photoshop-3" data-name="Photoshop">
    <path id="Photoshop-4" data-name="Photoshop" class="cls-2" d="M229.254,139.662a43.536,43.536,0,0,0-11.977-4.354A63.778,63.778,0,0,0,203.3,133.64a24.482,24.482,0,0,0-7.485.9,6.362,6.362,0,0,0-3.863,2.556,6.893,6.893,0,0,0-1,3.466,5.789,5.789,0,0,0,1.248,3.325,14.058,14.058,0,0,0,4.241,3.456,95.6,95.6,0,0,0,8.854,4.224,89.275,89.275,0,0,1,19.213,9.348,29.46,29.46,0,0,1,9.861,10.626,28.173,28.173,0,0,1,2.865,13.192,30.324,30.324,0,0,1-4.861,17.028,31.453,31.453,0,0,1-13.973,11.4c-6.119,2.686-13.6,4.094-22.587,4.094a83.421,83.421,0,0,1-16.968-1.668,49.589,49.589,0,0,1-12.726-4.094,2.518,2.518,0,0,1-1.367-2.427V186.779a1.4,1.4,0,0,1,.5-1.158,1,1,0,0,1,1.118.13,52.607,52.607,0,0,0,15.47,6.272,56.336,56.336,0,0,0,14.722,1.927c4.741,0,8.115-.639,10.361-1.8a5.932,5.932,0,0,0,3.363-5.373c0-1.8-1-3.455-2.994-5.123s-6.109-3.585-12.227-5.992a75.278,75.278,0,0,1-17.716-9.218,33.045,33.045,0,0,1-9.482-10.875,28.028,28.028,0,0,1-2.865-13.063,30.709,30.709,0,0,1,4.242-15.49,31.035,31.035,0,0,1,13.1-11.784c5.869-3.076,13.225-4.484,22.088-4.484a104.993,104.993,0,0,1,15.471,1.158,42.932,42.932,0,0,1,10.729,3,2.182,2.182,0,0,1,1.248,1.148,6.906,6.906,0,0,1,.25,1.538v20.872a1.591,1.591,0,0,1-.629,1.279A3.327,3.327,0,0,1,229.254,139.662Z"/>
    <path id="Photoshop-5" data-name="Photoshop" class="cls-2" d="M62.75,216V84.425c0-.9.38-1.407,1.25-1.407,2.13,0,4.13,0,7-.129s6.13-.13,9.5-.26,7-.12,10.88-.249,7.62-.13,11.37-.13c10.25,0,18.75,1.277,25.75,3.991a44.42,44.42,0,0,1,16.75,10.5,40.884,40.884,0,0,1,9.13,14.578,50.141,50.141,0,0,1,2.87,16.633q0,16.493-7.5,27.249A42.986,42.986,0,0,1,129.63,170.8c-8.5,3.193-17.88,4.35-28.13,4.35-3,0-5,0-6.25-.129s-3-.13-5.37-.13v41.059a1.6,1.6,0,0,1-1.372,1.795H64.25C63.25,217.67,62.75,217.131,62.75,216Zm27.26-108.35v42.985c1.75.129,3.38.259,4.88.259h6.62a45.707,45.707,0,0,0,14.38-2.3,21.47,21.47,0,0,0,10.25-6.785c2.62-3.193,3.87-7.543,3.87-13.171a21.373,21.373,0,0,0-2.87-11.384,18.231,18.231,0,0,0-8.75-7.294,35.989,35.989,0,0,0-14.76-2.585c-3.25,0-6.13,0-8.5.12a28.643,28.643,0,0,0-5.13.13Z"/>
  </g>
</svg>
