<svg width="50" height="50" viewBox="0 0 50 50" fill="none" xmlns="http://www.w3.org/2000/svg">
<path d="M41.6667 0H8.33333C3.73096 0 0 3.73096 0 8.33333V41.6667C0 46.269 3.73096 50 8.33333 50H41.6667C46.269 50 50 46.269 50 41.6667V8.33333C50 3.73096 46.269 0 41.6667 0Z" fill="#001E36"/>
<path d="M38.209 23.277C37.5828 22.9385 36.9102 22.694 36.2128 22.5513C35.449 22.373 34.6677 22.2798 33.8833 22.2733C33.4623 22.2586 33.0414 22.3092 32.6358 22.4233C32.3753 22.4794 32.1455 22.6315 31.992 22.8493C31.8862 23.0237 31.8286 23.2231 31.8253 23.427C31.8349 23.629 31.9077 23.8228 32.0333 23.9812C32.229 24.2176 32.4691 24.4133 32.7402 24.5572C33.2197 24.8169 33.7122 25.0519 34.2158 25.2612C35.3417 25.6504 36.4168 26.1735 37.418 26.8192C38.1048 27.2634 38.6697 27.8722 39.0615 28.5902C39.3965 29.2735 39.5604 30.0281 39.539 30.7888C39.5573 31.7944 39.2752 32.7825 38.7288 33.6268C38.1547 34.4739 37.3451 35.1344 36.4 35.5268C35.3802 35.9745 34.1333 36.2092 32.6355 36.2092C31.6858 36.2133 30.7382 36.1202 29.8075 35.9312C29.0729 35.8005 28.3595 35.571 27.6865 35.2488C27.6129 35.2113 27.5521 35.1529 27.5116 35.081C27.471 35.009 27.4526 34.9267 27.4587 34.8443V31.1298C27.4565 31.0934 27.4629 31.0569 27.4774 31.0234C27.4918 30.9899 27.514 30.9602 27.542 30.9368C27.5717 30.9213 27.6053 30.9151 27.6385 30.919C27.6717 30.9228 27.703 30.9366 27.7283 30.9585C28.5267 31.442 29.3971 31.7948 30.3067 32.0038C31.1068 32.2187 31.9319 32.3267 32.7603 32.325C33.5505 32.325 34.1128 32.2185 34.4872 32.025C34.6557 31.944 34.7979 31.8169 34.8971 31.6584C34.9963 31.4999 35.0485 31.3165 35.0477 31.1295C35.0477 30.8295 34.881 30.5537 34.5487 30.2757C34.2163 29.9977 33.5305 29.6782 32.5108 29.277C31.4628 28.8983 30.4698 28.3816 29.5582 27.7407C28.9043 27.2603 28.3647 26.6414 27.9778 25.9282C27.6453 25.2516 27.4815 24.5046 27.5003 23.751C27.5028 22.843 27.7468 21.9519 28.2073 21.1693C28.7301 20.3175 29.4884 19.6353 30.3907 19.2053C31.3688 18.6927 32.5948 18.458 34.072 18.458C34.9351 18.4587 35.7969 18.5232 36.6505 18.651C37.2657 18.7393 37.8669 18.9074 38.4387 19.151C38.4844 19.1674 38.5263 19.1928 38.562 19.2256C38.5977 19.2585 38.6265 19.2982 38.6467 19.3423C38.6702 19.4259 38.6842 19.5119 38.6883 19.5987V23.0773C38.6886 23.1186 38.6793 23.1593 38.6611 23.1963C38.6429 23.2333 38.6164 23.2656 38.5835 23.2905C38.4609 23.3296 38.3285 23.3248 38.209 23.277V23.277Z" fill="#31A8FF"/>
<path d="M10.4583 36V14.0709C10.4583 13.9209 10.5217 13.8364 10.6667 13.8364C11.0217 13.8364 11.355 13.8364 11.8333 13.8149C12.3117 13.7934 12.855 13.7932 13.4167 13.7715C13.9783 13.7499 14.5833 13.7515 15.23 13.73C15.8767 13.7085 16.5 13.7084 17.125 13.7084C18.8333 13.7084 20.25 13.9212 21.4167 14.3735C22.4669 14.7398 23.4211 15.3379 24.2083 16.1235C24.8821 16.8164 25.4008 17.6446 25.73 18.5532C26.045 19.4436 26.2067 20.3809 26.2083 21.3254C26.2083 23.1579 25.7917 24.6718 24.9583 25.8669C24.1287 27.0522 22.9597 27.9586 21.605 28.4667C20.1883 28.9989 18.625 29.1917 16.9167 29.1917C16.4167 29.1917 16.0833 29.1917 15.875 29.1702C15.6667 29.1487 15.375 29.1485 14.98 29.1485V35.9917C14.9892 36.0617 14.9704 36.1325 14.9275 36.1885C14.8846 36.2446 14.8213 36.2814 14.7513 36.2909H10.7083C10.5417 36.2784 10.4583 36.1885 10.4583 36ZM15.0017 17.9417V25.1059C15.2933 25.1274 15.565 25.149 15.815 25.149H16.9183C17.7326 25.1502 18.5417 25.0207 19.315 24.7657C19.9825 24.5633 20.5763 24.1703 21.0233 23.6349C21.46 23.1027 21.6683 22.3777 21.6683 21.4397C21.6891 20.775 21.5234 20.1178 21.19 19.5424C20.8462 18.9918 20.3352 18.5658 19.7317 18.3267C18.951 18.0121 18.1128 17.8653 17.2717 17.8959C16.73 17.8959 16.25 17.8959 15.855 17.9159C15.5699 17.8975 15.2838 17.9048 15 17.9375L15.0017 17.9417Z" fill="#31A8FF"/>
</svg>
