<svg width="50" height="50" viewBox="0 0 50 50" fill="none" xmlns="http://www.w3.org/2000/svg">
<path d="M40 0H10C5 0 0 5 0 10V40C0 45 5 50 10 50H40C45 50 50 45 50 40V10C50 5 45 0 40 0Z" fill="#001E36"/>
<path d="M38.1773 23.3865C37.5554 23.0433 36.8875 22.7953 36.1949 22.6506C35.4363 22.4698 34.6604 22.3753 33.8814 22.3687C33.4633 22.3538 33.0453 22.4051 32.6425 22.5208C32.3838 22.5777 32.1556 22.732 32.0032 22.9528C31.8981 23.1297 31.8409 23.3319 31.8376 23.5386C31.8472 23.7434 31.9195 23.94 32.0442 24.1006C32.2385 24.3403 32.477 24.5387 32.7462 24.6846C33.2224 24.948 33.7115 25.1863 34.2117 25.3985C35.3298 25.7932 36.3975 26.3236 37.3918 26.9783C38.0738 27.4287 38.6348 28.0461 39.0239 28.7741C39.3566 29.467 39.5194 30.2322 39.4982 31.0035C39.5163 32.0232 39.2362 33.0252 38.6935 33.8813C38.1234 34.7403 37.3194 35.41 36.3808 35.8079C35.368 36.2619 34.1297 36.4999 32.6422 36.4999C31.6991 36.504 30.758 36.4096 29.8337 36.218C29.1042 36.0854 28.3957 35.8527 27.7274 35.526C27.6543 35.488 27.5939 35.4288 27.5537 35.3559C27.5134 35.2829 27.4951 35.1994 27.5011 35.1158V31.3493C27.499 31.3124 27.5053 31.2754 27.5197 31.2414C27.534 31.2075 27.5561 31.1773 27.5839 31.1536C27.6134 31.1379 27.6467 31.1316 27.6797 31.1356C27.7127 31.1394 27.7438 31.1534 27.7689 31.1756C28.5618 31.6659 29.4262 32.0236 30.3295 32.2356C31.1241 32.4535 31.9435 32.563 32.7662 32.5613C33.5509 32.5613 34.1094 32.4533 34.4812 32.2571C34.6485 32.1749 34.7897 32.046 34.8883 31.8853C34.9868 31.7246 35.0386 31.5386 35.0378 31.349C35.0378 31.0448 34.8723 30.7651 34.5423 30.4832C34.2121 30.2014 33.5311 29.8774 32.5184 29.4706C31.4776 29.0866 30.4915 28.5626 29.5862 27.9127C28.9368 27.4256 28.4009 26.798 28.0167 26.0748C27.6864 25.3888 27.5238 24.6313 27.5424 23.8671C27.5449 22.9464 27.7872 22.0428 28.2446 21.2493C28.7638 20.3855 29.5168 19.6938 30.4129 19.2578C31.3843 18.738 32.6018 18.5 34.0688 18.5C34.926 18.5007 35.7819 18.5661 36.6296 18.6957C37.2405 18.7852 37.8376 18.9557 38.4054 19.2027C38.4508 19.2193 38.4924 19.2451 38.5279 19.2784C38.5633 19.3117 38.5919 19.352 38.612 19.3967C38.6353 19.4815 38.6492 19.5687 38.6533 19.6567V23.184C38.6536 23.2259 38.6444 23.2672 38.6263 23.3047C38.6082 23.3422 38.5819 23.3749 38.5492 23.4002C38.4275 23.4398 38.296 23.435 38.1773 23.3865Z" fill="#31A8FF"/>
<path d="M10.5 36.2037V13.8692C10.5 13.7164 10.5644 13.6304 10.7117 13.6304C11.0723 13.6304 11.4109 13.6304 11.8968 13.6085C12.3828 13.5866 12.9347 13.5864 13.5054 13.5643C14.0759 13.5423 14.6905 13.5439 15.3474 13.522C16.0044 13.5001 16.6376 13.5 17.2725 13.5C19.0079 13.5 20.4471 13.7167 21.6323 14.1774C22.6992 14.5505 23.6686 15.1596 24.4683 15.9598C25.1528 16.6655 25.6797 17.509 26.0141 18.4344C26.3341 19.3412 26.4984 20.2959 26.5 21.2578C26.5 23.1242 26.0768 24.6661 25.2302 25.8833C24.3874 27.0905 23.1998 28.0137 21.8236 28.5311C20.3844 29.0732 18.7963 29.2696 17.0609 29.2696C16.553 29.2696 16.2143 29.2696 16.0027 29.2477C15.7911 29.2258 15.4947 29.2256 15.0935 29.2256V36.1953C15.1028 36.2666 15.0837 36.3387 15.0401 36.3957C14.9966 36.4528 14.9323 36.4903 14.8611 36.5H10.754C10.5847 36.4873 10.5 36.3957 10.5 36.2037ZM15.1155 17.8116V25.1082C15.4117 25.1301 15.6878 25.1521 15.9417 25.1521H17.0625C17.8898 25.1533 18.7117 25.0214 19.4973 24.7617C20.1754 24.5556 20.7786 24.1553 21.2327 23.61C21.6763 23.068 21.8879 22.3296 21.8879 21.3742C21.9091 20.6972 21.7407 20.0279 21.402 19.4419C21.0528 18.8811 20.5337 18.4472 19.9206 18.2037C19.1275 17.8833 18.276 17.7338 17.4215 17.7649C16.8713 17.7649 16.3836 17.7649 15.9824 17.7853C15.6927 17.7665 15.4021 17.774 15.1138 17.8073L15.1155 17.8116Z" fill="#31A8FF"/>
</svg>
