<svg xmlns="http://www.w3.org/2000/svg" xmlns:xlink="http://www.w3.org/1999/xlink" width="79" height="21" viewBox="0 0 79 21">
  <defs>
    <style>
      .cls-1 {
        clip-path: url(#clip-Scores);
      }

      .cls-2 {
        fill: #fafafa;
      }

      .cls-3 {
        fill: url(#linear-gradient);
      }

      .cls-4 {
        fill: url(#linear-gradient-4);
      }
    </style>
    <linearGradient id="linear-gradient" x1="0.5" x2="0.5" y2="1" gradientUnits="objectBoundingBox">
      <stop offset="0" stop-color="#ff7819"/>
      <stop offset="1" stop-color="#ffbe19"/>
    </linearGradient>
    <linearGradient id="linear-gradient-4" x1="0.5" x2="0.5" y2="0.908" gradientUnits="objectBoundingBox">
      <stop offset="0" stop-color="#ffbe19"/>
      <stop offset="1" stop-color="#ff7819"/>
    </linearGradient>
    <clipPath id="clip-Scores">
      <rect width="79" height="21"/>
    </clipPath>
  </defs>
  <g id="Scores" class="cls-1">
    <g id="Logo" transform="translate(-38 -55.5)">
      <path id="Subtraction" class="cls-2" d="M73.172,21a11.479,11.479,0,0,1-2.719-.334,8.312,8.312,0,0,1-2.539-1.09.914.914,0,0,1-.526-.827.983.983,0,0,1,.406-.8.726.726,0,0,1,.443-.146,1.281,1.281,0,0,1,.549.146,8.6,8.6,0,0,0,2.269.973,8.96,8.96,0,0,0,2.178.276,4.523,4.523,0,0,0,2.583-.61,1.924,1.924,0,0,0,.871-1.656,1.61,1.61,0,0,0-.571-1.293,4.2,4.2,0,0,0-1.8-.741l-2.734-.581A5.489,5.489,0,0,1,68.785,13a3.252,3.252,0,0,1-.931-2.4,3.657,3.657,0,0,1,1.577-3.079,6.824,6.824,0,0,1,4.131-1.162,9.312,9.312,0,0,1,2.494.334,6.437,6.437,0,0,1,2.164,1.06.869.869,0,0,1,.45.843,1.046,1.046,0,0,1-.466.77.683.683,0,0,1-.39.121,1.148,1.148,0,0,1-.586-.195A7.137,7.137,0,0,0,75.4,8.438a6.452,6.452,0,0,0-1.833-.276,4.311,4.311,0,0,0-2.554.639,2,2,0,0,0-.871,1.685c0,1.079.748,1.782,2.224,2.091l2.734.552a6.287,6.287,0,0,1,2.914,1.293,3.062,3.062,0,0,1,.992,2.4,3.561,3.561,0,0,1-1.592,3.065A7.263,7.263,0,0,1,73.172,21ZM60.417,21a9.174,9.174,0,0,1-3.094-.49,6.528,6.528,0,0,1-2.373-1.471,6.321,6.321,0,0,1-1.51-2.313,8.532,8.532,0,0,1-.5-3.017,8.006,8.006,0,0,1,.9-3.848,6.5,6.5,0,0,1,2.479-2.585,7.176,7.176,0,0,1,3.65-.915,6.011,6.011,0,0,1,4.657,1.845,7.268,7.268,0,0,1,1.683,5.068c0,.6-.354.9-1.052.9H55.311a5.252,5.252,0,0,0,1.441,3.674,5.112,5.112,0,0,0,3.666,1.264,8.578,8.578,0,0,0,2.013-.247,6.232,6.232,0,0,0,1.983-.886,1.51,1.51,0,0,1,.776-.272.77.77,0,0,1,.38.1.892.892,0,0,1,.481.8,1.109,1.109,0,0,1-.617.945,7.592,7.592,0,0,1-2.358,1.074A9.988,9.988,0,0,1,60.417,21Zm-.39-12.9a4.354,4.354,0,0,0-3.275,1.249,5.4,5.4,0,0,0-1.412,3.283H64.2a5.2,5.2,0,0,0-1.157-3.341A3.863,3.863,0,0,0,60.027,8.1ZM35.782,21a7.311,7.311,0,0,1-3.7-.9,6.173,6.173,0,0,1-2.418-2.542,8.31,8.31,0,0,1-.856-3.877A8.312,8.312,0,0,1,29.667,9.8a6.184,6.184,0,0,1,2.418-2.542,8.007,8.007,0,0,1,7.376,0A6.156,6.156,0,0,1,41.9,9.8a8.315,8.315,0,0,1,.856,3.878,8.313,8.313,0,0,1-.856,3.877A6.145,6.145,0,0,1,39.462,20.1,7.33,7.33,0,0,1,35.782,21Zm0-12.752a4.159,4.159,0,0,0-3.29,1.395,5.989,5.989,0,0,0-1.217,4.038A6,6,0,0,0,32.492,17.7a4.528,4.528,0,0,0,6.564,0,5.953,5.953,0,0,0,1.232-4.023,5.943,5.943,0,0,0-1.232-4.038A4.172,4.172,0,0,0,35.782,8.248ZM7.96,21a15.836,15.836,0,0,1-4.072-.508A10.111,10.111,0,0,1,.6,19a1.22,1.22,0,0,1-.571-.756,1.2,1.2,0,0,1,.1-.813,1,1,0,0,1,.586-.508.748.748,0,0,1,.237-.038,1.286,1.286,0,0,1,.665.227,8.951,8.951,0,0,0,2.884,1.365,13.545,13.545,0,0,0,3.455.407,6.753,6.753,0,0,0,4.011-.973,3.064,3.064,0,0,0,1.306-2.571,2.476,2.476,0,0,0-.946-2.033,7.615,7.615,0,0,0-3.171-1.191L6.037,11.5A8.6,8.6,0,0,1,1.816,9.6,4.649,4.649,0,0,1,.419,6.07a5.377,5.377,0,0,1,.976-3.2A6.4,6.4,0,0,1,4.114.755,10.1,10.1,0,0,1,8.14,0a11.9,11.9,0,0,1,3.53.508A9.4,9.4,0,0,1,14.63,2.033a1.2,1.2,0,0,1,.5.741,1.086,1.086,0,0,1-.135.769.96.96,0,0,1-.6.45.784.784,0,0,1-.2.025,1.489,1.489,0,0,1-.734-.242A7.824,7.824,0,0,0,10.949,2.5,10.243,10.243,0,0,0,8.111,2.12,6.187,6.187,0,0,0,4.325,3.18a3.351,3.351,0,0,0-1.412,2.8A2.864,2.864,0,0,0,3.8,8.191,5.936,5.936,0,0,0,6.7,9.382l3.125.639A10.244,10.244,0,0,1,14.241,11.8a10.071,10.071,0,0,0-.153,1.8,8.472,8.472,0,0,0,.857,3.9c.052.1.107.2.163.3a5.164,5.164,0,0,1-.284.437,6.131,6.131,0,0,1-2.7,2.033A10.9,10.9,0,0,1,7.96,21Zm38.112-.058a1.086,1.086,0,0,1-1.232-1.219V7.61a1.047,1.047,0,0,1,1.172-1.191,1.06,1.06,0,0,1,1.2,1.191V9.149A4.351,4.351,0,0,1,49.076,7.1a6.509,6.509,0,0,1,3-.77c.051,0,.1-.007.146-.007.544,0,.839.315.875.936.061.675-.3,1.056-1.081,1.133l-.481.058a4.882,4.882,0,0,0-3.154,1.263A4.057,4.057,0,0,0,47.3,12.693v7.029A1.086,1.086,0,0,1,46.072,20.942Z" transform="translate(38 55.5)"/>
      <path id="Type" class="cls-2" d="M42-15.724a7.415,7.415,0,0,1-3.81-.937,6.253,6.253,0,0,1-2.465-2.649,8.792,8.792,0,0,1-.862-4,7.505,7.505,0,0,1,1.905-5.432A6.92,6.92,0,0,1,42-30.724a8.13,8.13,0,0,1,2.268.342,6.153,6.153,0,0,1,2.147,1.116.888.888,0,0,1,.438.893,1.067,1.067,0,0,1-.514.8.892.892,0,0,1-1.013-.119,5.358,5.358,0,0,0-1.618-.833,5.456,5.456,0,0,0-1.557-.238,4.455,4.455,0,0,0-3.538,1.414,5.976,5.976,0,0,0-1.24,4.063,6.24,6.24,0,0,0,1.24,4.092,4.327,4.327,0,0,0,3.538,1.5,5.456,5.456,0,0,0,1.557-.238,5.358,5.358,0,0,0,1.618-.833.848.848,0,0,1,1-.1,1.037,1.037,0,0,1,.469.818.9.9,0,0,1-.438.863,6.2,6.2,0,0,1-2.117,1.116A7.821,7.821,0,0,1,42-15.724Z" transform="translate(18.89 92.224)"/>
      <g id="Logo-2" data-name="Logo" transform="matrix(0.996, -0.087, 0.087, 0.996, 69.58, 64.312)">
        <path id="Icon" class="cls-3" d="M.2,0A.219.219,0,0,1,.4.235V2.115a.219.219,0,0,1-.2.235A.219.219,0,0,1,0,2.115V.235A.219.219,0,0,1,.2,0Z" transform="translate(4.038 7.165) rotate(13)"/>
        <path id="Icon-2" data-name="Icon" class="cls-3" d="M.25,0A.288.288,0,0,1,.5.315V2.835a.288.288,0,0,1-.25.315A.288.288,0,0,1,0,2.835V.315A.288.288,0,0,1,.25,0Z" transform="translate(3.055 6.479) rotate(13)"/>
        <path id="Icon-3" data-name="Icon" class="cls-3" d="M.2,0A.2.2,0,0,1,.4.2V1.8a.2.2,0,0,1-.4,0V.2A.2.2,0,0,1,.2,0Z" transform="translate(1.993 6.988) rotate(13)"/>
        <path id="Icon-4" data-name="Icon" class="cls-4" d="M3.19.325a.25.25,0,0,1,.42,0l.925,1.432a.25.25,0,0,0,.154.108l1.7.39a.25.25,0,0,1,.13.411L5.4,3.915a.25.25,0,0,0-.063.187L5.469,5.75A.25.25,0,0,1,5.128,6L3.491,5.361a.25.25,0,0,0-.183,0L1.672,6a.25.25,0,0,1-.341-.253L1.466,4.1A.25.25,0,0,0,1.4,3.915L.283,2.665a.25.25,0,0,1,.13-.411l1.7-.39a.25.25,0,0,0,.154-.108Z" transform="matrix(0.974, 0.225, -0.225, 0.974, 1.276, 0.05)"/>
      </g>
    </g>
  </g>
</svg>
