<svg width="42" height="30" viewBox="0 0 42 30" fill="none" xmlns="http://www.w3.org/2000/svg">
<path d="M31.1535 8.7871C31.1535 8.7871 27.748 19.808 27.4697 20.7181C26.6122 13.811 25.7465 6.90495 24.8728 0C19.0698 0 15.967 4.26172 14.3273 8.76001L9.8385 20.7452C9.81225 19.8856 9.2085 8.89003 9.2085 8.89003C8.8515 3.37868 3.9585 0.0234756 0 0.0234756L4.79325 30C10.8728 29.9729 14.1505 25.7365 15.8673 21.2382C15.8673 21.2382 19.5248 11.4904 19.6753 11.048C19.7015 11.4633 22.3003 29.9982 22.3003 29.9982C28.4042 29.9982 31.6838 26.0218 33.4478 21.6806L42 0.0252813C35.9713 0.0252813 32.7933 4.26172 31.1535 8.78529V8.7871Z" fill="#4252FF"/>
</svg>
