<svg width="42" height="16" viewBox="0 0 42 16" fill="none" xmlns="http://www.w3.org/2000/svg">
<path d="M28.9417 0.108761C28.5245 0.0891836 28.1063 0.111519 27.6936 0.175432L32.9436 8.05057L27.6936 15.7948C27.6936 15.7948 30.0554 16.1886 31.1054 15.1387C31.7616 14.4825 32.1554 13.8254 34.3865 10.6758C34.7804 10.0197 35.1761 10.6758 35.1761 10.6758C37.145 13.3007 37.6697 14.3513 38.5879 15.1387C39.7693 16.0572 42 15.7948 42 15.7948L36.75 8.05057L41.8692 0.174904C41.8692 0.174904 39.6382 -0.218892 38.5882 0.831056C37.8 1.61955 37.0138 2.66955 35.1759 5.42549C35.1759 5.42549 34.7802 6.08164 34.3863 5.42549C32.549 2.80056 31.7618 1.61907 30.9745 0.831954C30.4059 0.35435 29.6843 0.0975914 28.9417 0.108708V0.108761Z" fill="#FAFAFA"/>
<path d="M25.5941 2.79722V2.8976C25.6258 2.8398 25.6333 2.79691 25.5941 2.79691V2.79722ZM25.5941 2.8976C25.3937 3.15804 25.1195 3.35201 24.8073 3.45417C24.4397 3.68337 24.042 3.86029 23.6257 3.97983C22.7064 4.37373 22.8385 4.8977 22.8385 6.21085V15.9263C23.42 15.9988 24.0102 15.9082 24.5432 15.6648C25.4621 15.2709 25.5942 14.7442 25.5942 12.7747L25.5941 2.8976Z" fill="#FAFAFA"/>
<path d="M25.7247 0.176067C25.1465 0.175904 24.5716 0.264091 24.02 0.437576C23.2328 0.831478 22.969 1.6197 22.969 3.58921C23.2762 3.308 23.6324 3.08548 24.0198 2.93269C25.8575 2.27591 25.7245 0.963237 25.7245 0.174957L25.7247 0.176067Z" fill="#F3BB6D"/>
<path d="M0.551125 0.163003C0.367359 0.154364 0.183218 0.158353 0 0.174943L4.2 15.9263C4.86531 15.9319 5.5281 15.8439 6.16888 15.6649C7.08775 15.2711 7.48208 14.8759 8.00705 12.7756C8.53208 10.9381 9.8448 5.29414 9.97592 4.89986C10.2386 3.98136 10.6339 3.98136 10.8962 4.89986C11.0273 5.29366 12.34 10.8063 12.865 12.7756C13.3901 14.8755 13.7816 15.2711 14.7005 15.6649C15.3715 15.9098 16.0894 15.9992 16.8 15.9263L21 0.174943C19.5562 0.0435544 17.85 0.830038 17.7189 2.40528L15.4886 10.8062L13.6504 3.98263C13.2566 2.01375 12.3367 0.962853 10.6306 0.962853C8.92445 0.962853 8.1386 1.88279 7.61362 3.98263L5.77545 10.8062L3.54295 2.4058C3.19808 0.912664 1.85032 0.221592 0.551125 0.163003Z" fill="#FAFAFA"/>
</svg>
