<svg xmlns="http://www.w3.org/2000/svg" xmlns:xlink="http://www.w3.org/1999/xlink" width="795" height="300" viewBox="0 0 795 300">
  <defs>
    <style>
      .cls-1 {
        clip-path: url(#clip-Wix);
      }

      .cls-2 {
        fill: #f3bb6d;
      }
    </style>
    <clipPath id="clip-Wix">
      <rect width="795" height="300"/>
    </clipPath>
  </defs>
  <g id="Wix" class="cls-1">
    <g id="Wix-2" data-name="Wix" transform="translate(0 0)">
      <path id="Wix-3" data-name="Wix" d="M547.826,10.073A118.2,118.2,0,0,0,524.2,11.335L623.575,160.4,524.2,306.988s44.706,7.454,64.581-12.42c12.42-12.42,19.875-24.858,62.107-84.476,7.455-12.42,14.946,0,14.946,0,37.268,49.686,47.2,69.571,64.581,84.476C752.777,311.955,795,306.988,795,306.988L695.625,160.4l96.9-149.075s-42.231-7.454-62.106,12.42c-14.919,14.925-29.8,34.8-64.589,86.966,0,0-7.491,12.42-14.946,0-34.777-49.686-49.679-72.05-64.58-86.949a58.466,58.466,0,0,0-38.478-13.69Z" transform="translate(0 -9.943)"/>
      <path id="Wix-4" data-name="Wix" d="M484.459,61.047v1.9c.6-1.094.742-1.906,0-1.906Zm0,1.9a30.916,30.916,0,0,1-14.893,10.535,88.338,88.338,0,0,1-22.366,9.95c-17.4,7.456-14.9,17.374-14.9,42.23v183.9a59.852,59.852,0,0,0,32.268-4.95c17.393-7.456,19.893-17.426,19.893-54.706Z" transform="translate(0 -10.028)"/>
      <path id="Wix-5" data-name="Wix" class="cls-2" d="M486.932,11.347a107.452,107.452,0,0,0-32.268,4.95c-14.9,7.456-19.893,22.376-19.893,59.656A64.494,64.494,0,0,1,454.66,63.526c34.786-12.432,32.268-37.279,32.268-52.2Z" transform="translate(0 -9.943)"/>
      <path id="Wix-6" data-name="Wix" d="M10.432,11.1A76.068,76.068,0,0,0,0,11.326L79.5,309.477a134.3,134.3,0,0,0,37.268-4.949c17.393-7.454,24.857-14.934,34.794-54.69,9.938-34.781,34.786-141.613,37.268-149.076,4.973-17.386,12.455-17.386,17.419,0,2.482,7.454,27.33,111.8,37.268,149.076,9.938,39.748,17.349,47.237,34.742,54.69A89.333,89.333,0,0,0,318,309.477L397.5,11.326c-27.33-2.487-59.625,12.4-62.107,42.217L293.178,212.561,258.383,83.4c-7.455-37.268-24.866-57.16-57.161-57.16s-47.17,17.413-57.107,57.16L109.321,212.561,67.063,53.553C60.535,25.29,35.024,12.209,10.432,11.1Z" transform="translate(0 -9.943)"/>
    </g>
  </g>
</svg>
