<svg width="42" height="16" viewBox="0 0 42 16" fill="none" xmlns="http://www.w3.org/2000/svg">
<path d="M29.2214 0.00696489C28.8131 -0.012904 28.4039 0.00976396 28 0.0746286L33.1376 8.06703L28 15.9266C28 15.9266 30.3112 16.3262 31.3387 15.2607C31.9809 14.5947 32.3662 13.9278 34.5496 10.7314C34.935 10.0655 35.3222 10.7314 35.3222 10.7314C37.249 13.3953 37.7624 14.4616 38.661 15.2607C39.8171 16.1929 42 15.9266 42 15.9266L36.8624 8.06703L41.872 0.0740928C41.872 0.0740928 39.6888 -0.325567 38.6613 0.740015C37.89 1.54025 37.1206 2.60588 35.3221 5.40286C35.3221 5.40286 34.9348 6.06878 34.5494 5.40286C32.7514 2.73885 31.9811 1.53976 31.2106 0.740926C30.6542 0.256211 29.9481 -0.00437102 29.2214 0.00691111V0.00696489Z" fill="#FAFAFA"/>
<path d="M25.9713 2.50032V2.60334C26.0054 2.54402 26.0135 2.5 25.9713 2.5V2.50032ZM25.9713 2.60334C25.7557 2.87064 25.4608 3.06972 25.1249 3.17457C24.7295 3.4098 24.3017 3.59138 23.8539 3.71407C22.865 4.11834 23.0071 4.6561 23.0071 6.00383V15.9751C23.6326 16.0495 24.2675 15.9565 24.8409 15.7067C25.8293 15.3024 25.9714 14.7619 25.9714 12.7405L25.9713 2.60334Z" fill="#FAFAFA"/>
<path d="M25.9979 0.00113786C25.3689 0.000970771 24.7435 0.0913725 24.1434 0.269215C23.287 0.673009 23 1.48103 23 3.5C23.3342 3.21173 23.7217 2.98362 24.1432 2.82699C26.1424 2.15372 25.9977 0.808077 25.9977 0L25.9979 0.00113786Z" fill="#F3BB6D"/>
<path d="M0.551125 0.00449192C0.367359 -0.00426066 0.183218 -0.000219211 0 0.0165889L4.2 15.975C4.86531 15.9807 5.5281 15.8916 6.16888 15.7102C7.08775 15.3112 7.48208 14.9108 8.00705 12.7829C8.53208 10.9213 9.8448 5.20309 9.97592 4.80363C10.2386 3.87305 10.6339 3.87305 10.8962 4.80363C11.0273 5.20261 12.34 10.7877 12.865 12.7829C13.3901 14.9104 13.7816 15.3112 14.7005 15.7102C15.3715 15.9583 16.0894 16.0489 16.8 15.975L21 0.0165889C19.5562 -0.116527 17.85 0.680297 17.7189 2.27625L15.4886 10.7876L13.6504 3.87434C13.2566 1.87957 12.3367 0.814858 10.6306 0.814858C8.92445 0.814858 8.1386 1.74689 7.61362 3.87434L5.77545 10.7876L3.54295 2.27678C3.19808 0.764009 1.85032 0.0638512 0.551125 0.00449192Z" fill="#FAFAFA"/>
</svg>
