<svg id="XD" xmlns="http://www.w3.org/2000/svg" width="300" height="300" viewBox="0 0 300 300">
  <defs>
    <style>
      .cls-1 {
        fill: #470137;
      }

      .cls-2 {
        fill: #ff61f6;
      }
    </style>
  </defs>
  <rect id="XD-2" data-name="XD" class="cls-1" width="300" height="300" rx="50"/>
  <g id="XD-3" data-name="XD">
    <path id="XD-4" data-name="XD" class="cls-2" d="M216.876,218.342a60.314,60.314,0,0,1-26.87-5.833,44.174,44.174,0,0,1-18.875-17.631c-4.633-7.91-6.875-17.763-6.875-29.561a54.584,54.584,0,0,1,6.875-27.343A52.807,52.807,0,0,1,191,117.882c8.757-5.064,19.255-7.514,31.625-7.514a22.911,22.911,0,0,1,2.632.131c1.121.132,2.372.132,3.873.253V69.788c0-.911.37-1.427,1.251-1.427h25.369a1.121,1.121,0,0,1,1.251.9V192.974c0,2.329.13,4.921.251,7.777s.38,5.317.5,7.514a2.11,2.11,0,0,1-1.251,2.026,92.069,92.069,0,0,1-20.376,6.218A105.872,105.872,0,0,1,216.876,218.342Zm12.25-25.925V135.371c-1.111-.273-2.242-.486-3.373-.648-1.381-.122-2.752-.253-4.133-.253a29.85,29.85,0,0,0-14.161,3.372,28.235,28.235,0,0,0-10.588,9.56c-2.742,4.152-4.123,9.722-4.123,16.467a37.134,37.134,0,0,0,2.131,13.347,25.232,25.232,0,0,0,5.625,9.205,21.373,21.373,0,0,0,8.5,5.186,31.729,31.729,0,0,0,10.378,1.681c1.872,0,3.623-.132,5.244-.254a10.655,10.655,0,0,0,4.5-.648Z"/>
    <path id="XD-5" data-name="XD" class="cls-2" d="M155.437,84.783l-37.38,63.564,39.9,67.4a2.278,2.278,0,0,1,.249,1.535c-.119.512-.618.13-1.366.261H128.312c-1.995,0-3.362-.131-4.239-1.414-2.614-5.4-5.358-10.653-7.981-16.049s-5.487-10.653-8.48-16.179-5.985-11.034-8.978-16.691h-.249c-2.614,5.527-5.477,11.033-8.35,16.56s-5.727,11.034-8.47,16.44-5.746,10.953-8.639,16.179c-.5,1.284-1.5,1.4-2.863,1.4H42.669c-.5,0-.868.26-.868-.382A1.784,1.784,0,0,1,42.05,216L80.8,150.523,43.048,84.663c-.379-.522-.5-1-.249-1.284a1.41,1.41,0,0,1,1.247-.521H72.327a7.306,7.306,0,0,1,1.746.26,3.714,3.714,0,0,1,1.247,1.154c2.364,5.527,5.108,11.033,7.981,16.56s5.856,10.913,8.978,16.31,5.736,10.782,8.35,16.309h.23c2.613-5.657,5.357-11.174,8.1-16.57s5.607-10.783,8.47-16.169S123.035,89.8,125.8,84.533a2.075,2.075,0,0,1,.749-1.284,2.323,2.323,0,0,1,1.616-.261h26.3a1.138,1.138,0,0,1,1.355.872l0,.011h0c.13.13-.12.642-.369.892Z"/>
  </g>
</svg>
