<svg width="50" height="50" viewBox="0 0 50 50" fill="none" xmlns="http://www.w3.org/2000/svg">
<path d="M40 0H10C5 0 0 5 0 10V40C0 45 5 50 10 50H40C45 50 50 45 50 40V10C50 5 45 0 40 0Z" fill="#470137"/>
<path d="M36.0051 36.4987C34.4161 36.5237 32.8426 36.191 31.4072 35.5265C30.0541 34.8823 28.9295 33.859 28.1774 32.588C27.3847 31.2697 27.001 29.6275 27.001 27.6611C26.9767 26.0679 27.3823 24.4964 28.1774 23.1039C28.9774 21.7076 30.1528 20.5499 31.5773 19.7552C33.0758 18.9112 34.8721 18.5029 36.9888 18.5029C37.1393 18.5017 37.2897 18.5091 37.4392 18.5247C37.631 18.5467 37.8451 18.5467 38.1019 18.5669V11.7395C38.1019 11.5877 38.1653 11.5017 38.316 11.5017H42.657C42.7056 11.4953 42.7549 11.5073 42.7948 11.5352C42.8345 11.5631 42.8619 11.6048 42.8711 11.6517V32.2707C42.8711 32.6588 42.8933 33.0908 42.914 33.5668C42.9347 34.0428 42.9791 34.453 42.9996 34.8192C43.003 34.8898 42.9844 34.96 42.9462 35.0202C42.9079 35.0805 42.8519 35.1282 42.7855 35.1568C41.6683 35.6325 40.4984 35.9804 39.2989 36.1932C38.2128 36.3927 37.1103 36.4949 36.0051 36.4987ZM38.1013 32.1778V22.6701C37.9112 22.6246 37.7176 22.5891 37.5241 22.5621C37.2878 22.5418 37.0532 22.5199 36.8169 22.5199C35.974 22.5096 35.1415 22.7028 34.3937 23.0819C33.6598 23.4533 33.0359 24.0019 32.5819 24.6753C32.1128 25.3673 31.8764 26.2956 31.8764 27.4198C31.8573 28.1768 31.9808 28.9308 32.2411 29.6443C32.4445 30.2173 32.7729 30.7406 33.2036 31.1785C33.6119 31.5742 34.1102 31.8703 34.6581 32.0428C35.23 32.2318 35.8301 32.3265 36.4339 32.323C36.7542 32.323 37.0539 32.301 37.3312 32.2807C37.5929 32.299 37.8555 32.2622 38.1013 32.1727V32.1778Z" fill="#FF61F6"/>
<path d="M25.5419 14.815L19.4453 25.1743L25.9529 36.1587C25.9953 36.2348 26.0098 36.3233 25.9935 36.4089C25.9741 36.4923 25.8927 36.4301 25.7707 36.4514H21.1178C20.7925 36.4514 20.5695 36.4301 20.4265 36.221C20.0001 35.3409 19.5526 34.4848 19.1248 33.6054C18.697 32.726 18.2299 31.8692 17.7417 30.9686C17.2536 30.068 16.7656 29.1704 16.2774 28.2484H16.2368C15.8105 29.1492 15.3435 30.0465 14.875 30.9473C14.4064 31.8481 13.9409 32.7456 13.4935 33.6266C13.0462 34.5076 12.5564 35.4116 12.0845 36.2634C12.003 36.4726 11.8399 36.4915 11.6176 36.4915H7.14969C7.06815 36.4915 7.00813 36.5339 7.00813 36.4293C6.99872 36.3903 6.99746 36.3499 7.00446 36.3104C7.01144 36.2708 7.02652 36.2334 7.04874 36.2L13.3688 25.5289L7.21151 14.7954C7.14969 14.7103 7.12996 14.6324 7.1709 14.5862C7.19497 14.5561 7.2262 14.5326 7.26174 14.5178C7.29728 14.5029 7.33597 14.4972 7.37428 14.5012H11.9868C12.0831 14.5038 12.1787 14.518 12.2716 14.5436C12.353 14.5898 12.4226 14.6541 12.475 14.7317C12.8605 15.6324 13.3081 16.5298 13.7767 17.4305C14.2452 18.3313 14.7318 19.2091 15.241 20.0886C15.7501 20.9682 16.1765 21.8458 16.6028 22.7466H16.6403C17.0665 21.8246 17.514 20.9255 17.9614 20.0461C18.4088 19.1667 18.8759 18.2887 19.3429 17.411C19.8098 16.5332 20.2572 15.6326 20.7081 14.7742C20.7217 14.6918 20.7651 14.6172 20.8303 14.565C20.9101 14.5193 21.0038 14.5042 21.0939 14.5224H25.3833C25.4071 14.5172 25.4318 14.5168 25.4559 14.5211C25.4799 14.5254 25.5029 14.5345 25.5233 14.5477C25.5438 14.5609 25.5616 14.578 25.5755 14.598C25.5893 14.6181 25.5991 14.6407 25.6043 14.6645V14.6663C25.6255 14.6875 25.5848 14.771 25.5441 14.8117L25.5419 14.815Z" fill="#FF61F6"/>
</svg>
